<?xml version="1.0" standalone="no"?>
<!DOCTYPE svg PUBLIC "-//W3C//DTD SVG 20010904//EN"
 "http://www.w3.org/TR/2001/REC-SVG-20010904/DTD/svg10.dtd">
<svg version="1.0" xmlns="http://www.w3.org/2000/svg"
 width="256.000000pt" height="256.000000pt" viewBox="0 0 256.000000 256.000000"
 preserveAspectRatio="xMidYMid meet">
<metadata>
Created by potrace 1.14, written by Peter Selinger 2001-2017
</metadata>
<g transform="translate(0.000000,256.000000) scale(0.100000,-0.100000)"
fill="#000000" stroke="none">
<path d="M615 2339 c-208 -31 -328 -155 -370 -381 -14 -76 -16 -164 -13 -655
4 -553 5 -570 26 -641 62 -205 153 -297 319 -322 162 -25 305 31 384 150 9 14
19 23 21 20 3 -3 18 -39 34 -80 l30 -75 77 -3 77 -3 0 576 0 575 -240 0 -240
0 0 -170 0 -170 55 0 55 0 0 -160 c0 -181 -11 -248 -45 -280 -32 -30 -88 -30
-120 0 -43 41 -46 89 -43 657 3 521 3 532 24 560 26 35 78 54 116 41 48 -17
53 -31 56 -180 l4 -138 195 0 196 0 -7 117 c-13 219 -45 331 -124 429 -70 88
-161 127 -323 137 -46 3 -111 1 -144 -4z"/>
<path d="M1370 1341 l0 -991 278 0 c152 0 306 5 342 11 142 22 230 92 279 219
49 126 56 178 56 395 0 165 -3 211 -18 260 -28 92 -75 156 -139 190 l-55 29
49 24 c105 52 139 131 146 335 5 164 -8 249 -49 334 -38 78 -90 124 -177 154
-64 22 -84 23 -389 27 l-323 4 0 -991z m527 655 c22 -26 23 -34 23 -169 0
-176 -9 -213 -55 -233 -19 -8 -53 -14 -75 -14 l-40 0 0 226 0 226 62 -4 c51
-4 65 -9 85 -32z m-5 -743 c49 -44 53 -66 53 -268 0 -167 -2 -194 -18 -218
-28 -42 -75 -67 -129 -67 l-48 0 0 291 0 292 61 -6 c38 -3 68 -12 81 -24z"/>
</g>
</svg>
